<svg xmlns="http://www.w3.org/2000/svg" x="0px" y="0px" width="248.85px" height="250px">
<path fill="#CE9D00" d="M134.51,54.28c-4.54-3.83-6.05-7.96-6.05-7.96c-2.32-3.93-0.7-14.92-0.7-14.92
	c-0.1,0.66,0.61,4.23,0.61,4.23c0.4,2.47,3.12,5.14,3.12,5.14c3.53,3.23,4.03,5.39,4.03,5.39c1.31,2.52,1.71,7.91,1.71,7.91
	c0.2,1.31,1.01,2.82,1.01,2.82C137.03,56.5,134.51,54.28,134.51,54.28 M112.99,76.61c0,0-0.1-3.83,1.16-5.95c0,0,3.88-5.95,4.18-6.2
	c0,0,3.02-3.28,4.39-7.71c0,0,0.91-2.27,0.91-8.87c0,0-0.1-5.74-0.05-7.11c0,0,0.35-3.93,0.76-4.89c0,0,0.81-2.47,0.86-6.15
	c0,0,0.3-5.29-0.1-5.44c0,0-0.66,5.64-3.93,10.89c0,0-3.73,6.1-4.84,6.76c0,0-5.19,6.4-5.64,9.32c0,0-1.61,4.94-0.91,11.74
	C109.76,63,111.48,73.43,112.99,76.61 M105.48,93.26c0,0,3.55-3.86,2.19-10.58c0,0-0.15-2.04-1.06-5.14c0,0-0.98-3.1-0.45-6.58
	c0,0,0.6-4.16,1.14-5.44c0,0,1.36-4.01,0.6-5.52c0,0-1.59,4.01-2.27,4.76c0,0-4.91,5.9-5.97,8.16c0,0-3.63,6.95-3.7,11.42
	c0,0-0.91,6.88,2.11,9.68C98.07,94.02,101.62,98.4,105.48,93.26 M125.54,58.61c0,0-2.12,3.43-2.42,3.63c0,0-3.43,2.82-4.64,9.78
	c0,0-0.7,4.54-0.5,5.44c0,0-1.31-0.71-1.01-8.06c0,0-5.54,11.49,0.2,20.87c0,0,6.35,10.38,9.17,12.4c0,0-3.43-5.64-1.21-11.49
	c0,0,3.12-5.64,6.05-8.57c0,0,6.45-5.54,5.75-12.5c0,0,0.81-5.34-4.44-13.41c0,0-4.53-8.97-7.26-9.68
	C125.24,47.02,128.46,53.47,125.54,58.61 M140.15,68.49c2.02,3.83-0.1,13.91-0.1,13.91c-2.72,14.82,3.73,16.93,3.73,16.93
	c-2.02-3.83,0.7-5.74,0.7-5.74c-1.41,2.62,3.33,8.67,3.33,8.67c2.82,4.33,1.01,9.07,1.01,9.07c12.9-10.79,2.02-25.5,2.02-25.5
	c-0.71-1.01-0.1-1.31-0.1-1.31c1.81,0.1,6.25,8.37,6.25,8.37c4.03-17.44-9.78-26.01-9.78-26.01c-3.53-2.22-6.25-5.14-6.25-5.14
	c-2.62-3.83-7.36-5.64-7.36-5.64C138.44,61.13,140.15,68.49,140.15,68.49 M152.2,134.92c0,0,0.81-1.72,0.1-3.43
	c0,0-7.46,3.07-9.83,7.31c0,0-4.33,7.26,3.17,10.69c0,0-1.36-2.42-1.26-4.99c0,0-0.4-2.87,3.43-5.9
	C147.81,138.6,152,135.27,152.2,134.92 M135.67,143.69c0,0,1.16-8.17,3.63-10.99c0,0,1.61-1.62,2.72-3.23c0,0,2.77-4.13,2.72-5.39
	c0,0,0.25,2.3-1.34,5.66c0.02-0.07,0.03-0.11,0.03-0.11l-0.05,0.15c0.01-0.01,0.01-0.02,0.02-0.04c-0.18,0.62-1.05,3.82,0.13,3.82
	c0,0,2.22-0.45,3.88-5.29c0,0,0.25-1.46-0.86-3.68c0,0-0.5-1.16-0.3-2.57c0,0,0.66-2.72,0.15-3.02c0,0-0.86,2.02-2.87,4.33
	c0,0-6.6,8.42-6.9,9.98C136.63,133.3,133.75,138.09,135.67,143.69 M122.36,152.46c0,0,3.98-3.12,3.63-7.21c0,0,0.2-4.84-5.7-7.11
	c0,0-11.29-3.17-12.85-5.39c0,0-1.41,3.88,0.86,5.04c0,0,5.7,2.42,6.6,5.44c0,0,1.76,4.79-0.96,6.7c0,0-1.36,1.66-3.23,2.47
	C110.72,152.4,116.92,156.03,122.36,152.46 M162.03,118.29c1.51,11.19-8.77,12.4-8.77,12.4c12.1,11.79-9.53,25.25-9.53,25.25
	c-18.6,15.87-35.53,1.21-35.53,1.21l-2.52-1.56c-11.29-8.67-13.2-13.2-13.2-13.2c-3.83-4.23-5.85-12.2-5.85-12.2
	c-2.22-13.91,4.44-21.37,4.44-21.37c1.31-3.53,14.01-12.7,14.01-12.7c7.26-6.05,4.64-16.43,4.64-16.43
	c2.62,1.61,4.64,10.08,4.64,10.08c1.21,6.45-3.23,15.52-3.23,15.52c-3.53,8.77-12,16.73-12,16.73c-9.98,11.59-0.6,19.55-0.6,19.55
	c-0.4-3.83,0.91-4.34,0.91-4.34c1.61-1.21,2.12-2.52,2.12-2.52c0.5,0.2,0.91,2.42,0.91,2.42c0.6-2.32,3.63-5.34,3.63-5.34
	c-3.53-3.02-2.72-7.06-2.72-7.06c-0.41-4.84,6.45-10.89,6.45-10.89c2.82-2.52,2.92-8.06,2.92-8.06c2.02,0.6,3.43,6.45,3.43,6.45
	c3.53-2.82-0.1-16.33-0.1-16.33c4.94,2.32,8.27,8.77,8.27,8.77c5.95,8.67,1.61,16.03,1.61,16.03c-4.13,9.58,0.6,10.89,0.6,10.89
	c7.06,2.42,10.78-4.44,10.78-4.44c2.82-6.45-4.64-11.69-4.64-11.69c-7.46-7.15-5.14-12.4-5.14-12.4c2.62-15.83,9.68-25.7,9.68-25.7
	c-3.43,13.51,4.33,23.29,4.33,23.29c7.26,9.17,5.74,15.52,5.74,15.52c4.33-2.12,7.76-11.09,7.76-11.09
	c0.91-3.63,2.87-6.15,2.87-6.15c-1.36,4.39,0.91,10.43,0.91,10.43C160.67,111.94,162.03,118.29,162.03,118.29"/>
<path fill="#007856" d="M150.08,159.11c5.9-3.02,8.01-7.56,8.01-7.56c8.47,1.96,15.73,9.98,15.73,9.98
	C160.67,165.76,150.08,159.11,150.08,159.11 M141.92,24.69c-0.15,0.76,2.57,9.68,2.57,9.68c0.6,0,4.38,2.27,4.38,2.27
	c0.91,1.36,4.84,3.03,4.84,3.03c-0.3-0.3-0.91-4.39-0.91-4.39c-0.91-2.57,0.15-2.12,0.15-2.12c6.95,0.3,13.15,4.38,13.15,4.38
	c1.51-2.27-5.44-7.1-5.44-7.1C157.19,28.63,141.92,24.69,141.92,24.69 M179.16,38.35c-2.92,3.12-1.01,6.45-1.01,6.45
	c0.61,0.1,5.95,6.45,5.95,6.45c0.71,1.41,2.62,4.84,2.62,4.84c2.42-7.97-2.62-10.99-2.62-10.99c-3.83-4.43-5.04-7.06-5.04-7.06
	 M192.27,47.73c-1.01,2.82,1.82,8.37,1.82,8.37c0.2,0.81,5.34,6.05,5.34,6.05c-0.4-1.51,0.91-5.85,0.91-5.85
	C198.21,50.55,192.27,47.73,192.27,47.73 M189.75,53.27c0.43,0.98-0.66,4.69-0.66,4.69c-0.38,1.89-0.35,5.8-0.35,5.8
	c1.11,4.13,4.64,5.24,4.64,5.24c6.65,4.23,9.78,12,9.78,12c3.02-10.08-7.86-18.95-7.86-18.95
	C190.66,57.71,189.75,53.27,189.75,53.27 M172.61,40.17c0.81,1.21,0.7,4.23,0.7,4.23c-0.5,2.32-0.3,7.16-0.3,7.16
	c2.32,13.91,7.86,15.72,7.86,15.72c1.92,0.3,1.31-2.62,1.31-2.62c-1.41-4.64-0.3-4.03-0.3-4.03c0.1-0.81,3.83,2.02,3.83,2.02
	c2.32-2.32-3.12-10.28-3.12-10.28c0.1-0.91-6.95-8.57-6.95-8.57C174.93,43.39,172.61,40.17,172.61,40.17 M136.02,35.63
	c-0.3,0.81,2.42,3.53,2.42,3.53c1.81,0.6,3.83,8.26,3.83,8.26c9.88,1.21,15.82-3.02,15.82-3.02c-3.73-0.2-7.96-3.93-7.96-3.93
	C141.87,34.52,136.02,35.63,136.02,35.63 M131.28,26.66c3.93,2.22,6.45,5.95,6.45,5.95c0.1-0.4,3.83,0.3,3.83,0.3
	c0.6-0.81-1.41-5.44-1.41-5.44c-1.71,0.2-3.53-0.3-3.53-0.3C135.42,26.46,131.28,26.66,131.28,26.66 M146.1,50.15
	c0.4-0.5,5.34,3.53,5.34,3.53c0.3,0.4,3.23,3.73,3.23,3.73c1.71,1.61,5.74,1.61,5.74,1.61c-0.2-0.5,0.1-5.04,0.1-5.04
	c0.6-4.54-2.42-6.75-2.42-6.75C153.86,50.45,146.1,50.15,146.1,50.15 M144.09,52.36c0.6,0.7,1.51,3.93,1.51,3.93
	c0.2,1.11,1.41,2.82,1.41,2.82c0.4-0.6,4.84,3.43,4.84,3.43c1.81-0.81,6.75-0.4,6.75-0.4c1.21-0.1,0.6-1.31,0.6-1.31
	c-3.83,0.81-7.26-3.63-7.26-3.63C149.12,52.97,144.09,52.36,144.09,52.36 M180.78,115.76c12.5-7.26,19.35-2.42,19.35-2.42
	c1.61-1.41,2.02-6.25,2.02-6.25c-0.2-3.63,2.72-8.47,2.72-8.47c-1.61,1.01-9.88,3.12-9.88,3.12
	C181.78,107.2,180.78,115.76,180.78,115.76 M184.5,118.29c2.52,0.7,3.63,2.62,3.63,2.62c0.2,0.61,4.23,1.82,4.23,1.82
	c3.33,1.01,4.64,0.4,4.64,0.4c-0.81,2.32-3.63,4.74-3.63,4.74c0.1,0.5,4.54,0.2,4.54,0.2c5.24-1.61,12.1-10.08,12.1-10.08
	c-4.74,1.11-8.87-1.11-8.87-1.11C189.85,112.24,184.5,118.29,184.5,118.29 M165.96,128.47c11.89,8.87,26.21-3.53,26.21-3.53
	c-4.23,1.01-9.17-3.83-9.17-3.83c-4.23-4.64-15.22-3.83-15.22-3.83C169.29,124.23,165.96,128.47,165.96,128.47 M200.33,129.88
	c1.31,4.43,14.92,9.57,14.92,9.57c-2.52-7.86-9.37-13.51-9.37-13.51C201.34,130.08,200.33,129.88,200.33,129.88 M208.9,124.53
	c8.87,6.85,9.88,13.61,9.88,13.61c5.85-2.32,6.25-8.67,6.25-8.67C215.25,122.72,208.9,124.53,208.9,124.53 M215.55,122.02
	c7.46,1.91,9.88,4.33,9.88,4.33c2.62-7.66-3.93-12.4-3.93-12.4C219.18,119.29,215.55,122.02,215.55,122.02 M197.71,98.23
	c0,0,3.53-1.51,5.85-1.51c0,0,2.32-0.51,3.83-2.22c0,0,0.7,4.23-1.01,5.65c0,0-0.71,1.91-0.51,3.53c0,0,8.06-0.51,5.95-16.63
	c0,0-0.71-2.72-0.81-5.34c0,0,0.3-3.43-0.4-3.53C210.61,78.17,197.11,87.85,197.71,98.23 M202.95,114.25c0,0,2.93,2.02,7.46,0.81
	c0,0,0.81-0.4,2.52-0.6c0,0-0.2,5.75-2.82,7.66c0,0,3.12,1.91,10.28-10.89c0,0,6.05-9.68,1.31-17.94c0,0-0.1,4.33-10.48,9.68
	C211.22,102.96,202.85,107.8,202.95,114.25 M212.53,78.07c0,0,0.91,2.42,0.5,3.12c0,0,0,3.63,0.7,5.14c0,0,1.41,7.46,0.4,7.86
	c0,0,2.52,1.51,2.62,2.12c0,0,3.93-2.72,2.82-7.66C219.58,88.65,217.97,80.99,212.53,78.07 M214.64,76.66c0,0-6.85-12.5-9.27-14.31
	c0,0-3.63,5.24-1.11,8.16c0,0,2.32,2.62,1.71,8.57c0,0,1.71-2.42,2.52-2.62c0,0,1.81-1.31,1.71-2.22c0,0,0.4-1.01,1.41,0.3
	l2.02,2.52L214.64,76.66z M200.13,84.42c-1.51-7.66-6.35-10.68-6.35-10.68c-2.42-1.01-6.35-5.65-6.35-5.65
	c-0.3-0.7-2.12-2.72-2.12-2.72c-1.81-0.91-1.21,0.5-1.21,0.5c1.41,0.81,1.21,7.16,1.21,7.16c-0.3,6.75,4.23,10.58,4.23,10.58
	c2.32,1.92,6.15,10.18,6.15,10.18C196.1,91.17,200.13,84.42,200.13,84.42 M193.27,98.93c-0.4-10.99-13.81-21.67-13.81-21.67
	c-0.5,0.91,0.3,2.72,0.3,2.72c2.12,5.04,0.1,9.88,0.1,9.88c-2.62,8.67,3.83,15.83,3.83,15.83
	C184.51,102.96,193.27,98.93,193.27,98.93 M178.66,102.16c0,0-1.71-4.74-1.71-6.75c0,0-6.25-4.03-11.39,3.83
	C165.56,99.24,171.4,97.62,178.66,102.16 M180.88,108.41c-0.4-4.34-18.14-8.07-18.14-8.07c-0.1,1.21,0.51,2.72,0.51,2.72
	c0.6,0.4,2.42,3.23,2.42,3.23c5.24,10.68,11.59,10.48,11.59,10.48C176.94,113.45,180.88,108.41,180.88,108.41 M163.74,87.24
	c0,0,0.2,4.03-0.71,7.86c0,0,7.36-1.41,8.97-2.62C172.01,92.48,166.77,88.45,163.74,87.24 M167.52,115.93c0.4-0.5,2.52-0.5,2.52-0.5
	c-1.91-1.31-4.33-5.64-4.33-5.64c-0.91-1.81-2.11-2.72-2.11-2.72c-0.1,0.4,0.6,1.72,0.6,1.72
	C164.8,109.07,167.52,115.93,167.52,115.93 M161.72,146.91c12.9,2.42,19.56-6.35,19.56-6.35c0.5-1.41,5.14-3.33,5.14-3.33
	c-2.32,0.3-4.94-1.41-4.94-1.41c-9.37-5.24-18.34-0.91-18.34-0.91C165.25,142.27,161.72,146.91,161.72,146.91 M160.72,149.33
	c5.44,2.82,9.88,6.55,9.88,6.55c5.14,6.05,14.01,5.85,14.01,5.85c3.83,0.1,7.86,2.02,7.86,2.02c0.3-1.41-3.43-4.84-3.43-4.84
	c-1.92-0.7-7.06-7.86-7.06-7.86c-1.51-4.53-3.22-4.43-3.22-4.43C170.19,151.95,160.72,149.33,160.72,149.33 M162.53,133.3
	c0.3-0.5,3.83-1.51,3.83-1.51c-0.4,0-2.52-1.41-2.52-1.41c-0.51,0.51-2.22,1.11-2.22,1.11C162.23,132.2,162.53,133.3,162.53,133.3
	 M185.62,133.41c1.01,0.81,1.81,1.51,1.81,1.51c2.52,1.51,4.84,2.02,4.84,2.02c-0.81,0.4-1.11,0.6-1.11,0.6
	c-6.05,2.62-6.15,4.33-6.15,4.33c13.51,12.9,29.54,0.5,29.54,0.5c-4.14,0.3-10.39-4.13-10.39-4.13
	C193.78,129.07,185.62,133.41,185.62,133.41 M199.93,164.45c0,0,14.52,0.5,18.55-8.47c0,0-7.26,1.81-7.86,2.22
	c0,0-9.07,3.12-10.79,2.82L199.93,164.45z M186.52,151.85c0,0,5.04,6.55,6.65,6.65c0,0,8.57,1.01,13.1-1.21c0,0,7.46-2.72,8.16-2.12
	c0,0-7.36-0.2-12.4-3.23C202.04,151.95,193.78,146.61,186.52,151.85 M181.48,145c0,0,2.82,3.33,2.82,4.23c0,0,0.1,1.01,0.7,1.41
	c0,0,1.61-1.81,4.74-2.42c0,0-6.25-3.53-6.45-4.64C183.3,143.58,182.99,144.69,181.48,145 M207.69,148.73
	c0.61,0.3,2.93,2.02,2.93,2.02c8.26,2.22,11.89-3.23,11.89-3.23c-1.51-4.94-5.95-3.63-5.95-3.63
	C213.13,146.81,207.69,148.73,207.69,148.73 M163.77,83.96c2.42,3.02,5.29,3.78,5.29,3.78c6.13,2.12,7.26,3.48,7.26,3.48
	c-0.08-0.83,1.13-4.01,1.13-4.01c0.23-2.95-0.83-3.86-0.83-3.86c-6.05-2.34-10.43-8.92-10.43-8.92c-0.83,0.45-6.2-0.53-6.2-0.53
	C163.61,79.65,163.77,83.96,163.77,83.96 M175.11,72.62c0,0,4.91,0.98,5.37,2.12c0,0,0.83-5.07-11.87-15.12c0,0-5.07-5.22-5.22-6.81
	c0,0-2.57,22.23,13.53,28.05c0,0,0.23-6.8-1.89-8.01 M155.68,35.73c-0.38,0.53,1.21,5.59,1.21,5.59c1.66,1.44,5.59,2.04,5.59,2.04
	c-0.91,2.04-2.5,2.72-2.5,2.72c1.97,0.91,4.84,5.52,4.84,5.52c1.44,1.89,4.61,4.99,4.61,4.99c1.51,1.13,1.44-0.6,1.44-0.6
	c-1.21-1.82-0.3-11.11-0.3-11.11C165.81,38,155.68,35.73,155.68,35.73 M160.06,71.34c0,0,2.87,0.45,3.48,0.3
	c0,0-2.19-6.65-1.89-7.11C161.65,64.53,159.46,68.01,160.06,71.34 M158.32,69.83c0,0,1.36-4.61,0.83-5.29c0,0-4.61-0.83-5.75-0.23
	C153.41,64.31,157.64,68.77,158.32,69.83 M103.87,35.23c4.13-3.12,12.9-3.63,12.9-3.63c0,1.81-7.16,8.57-7.16,8.57
	C108.91,38.55,103.87,35.23,103.87,35.23 M78.64,39.96c0.38-0.08,2.19,3.1,2.19,3.1c1.81,2.8,3.48,4.06,3.48,4.06
	c6.05-3.93,6.25-8.37,6.25-8.37c0-1.61,1.11-5.95,1.11-5.95c1.61-1.21,1.81-4.64,1.81-4.64c-5.85,0.1-11.29,3.43-11.29,3.43
	c-3.33,3.23-3.23,8.37-3.23,8.37 M66.92,39.51c-0.23,0.98,3.02,3.71,3.02,3.71c1.89,2.04,3.86,1.96,3.86,1.96
	c-0.91-1.74,0.6-6.58,0.6-6.58c0.08-2.57,2.42-0.6,2.42-0.6c2.65-2.72,2.27-5.9,2.27-5.9C76.98,32.56,66.92,39.51,66.92,39.51
	 M81.79,135.62c-7.86,1.21-11.9,9.68-11.9,9.68c6.45,5.74,18.25,1.01,18.25,1.01C83.81,141.77,81.79,135.62,81.79,135.62
	 M80.28,133.3c-5.95-1.51-8.67-0.3-8.67-0.3c0.71,0.81,2.52,3.33,2.52,3.33C76.15,134.72,80.28,133.3,80.28,133.3 M89.55,148.12
	c-1.51,1.01-3.23,1.11-3.23,1.11c-3.53,0.4-7.46,6.25-7.46,6.25c3.03-0.2,7.97,1.11,7.97,1.11c6.25,2.32,12.3,0.71,12.3,0.71
	C93.89,154.17,89.55,148.12,89.55,148.12 M101.25,159.31c-4.64,2.62-13.71-0.3-13.71-0.3c1.11,4.54,6.05,4.24,6.05,4.24
	c2.82,0.6,9.98-2.62,9.47-2.72C102.56,160.42,101.25,159.31,101.25,159.31 M85.22,158.6c-5.14-1.71-7.26-0.61-7.26-0.61
	c3.73,5.44,10.48,5.54,10.48,5.54C85.52,162.43,85.22,158.6,85.22,158.6 M79.98,150.24c-9.17,1.11-15.52-4.74-15.52-4.74
	c-5.14,1.01-7.66,3.73-7.66,3.73c1.21-0.2,3.93,1.51,3.93,1.51c1.51,1.21,7.66,3.63,7.66,3.63c2.52,1.01,7.56,0.71,7.56,0.71
	C76.55,153.87,79.98,150.24,79.98,150.24 M58.61,77.87c0.81,1.51,2.32,2.62,2.32,2.62c2.02,1.01,4.13,4.03,4.13,4.03
	c4.53-0.7,5.95-2.22,5.95-2.22c3.33-1.81,7.36-9.58,7.36-9.58c2.82-4.13,8.36-8.16,8.36-8.16c-0.7,0.4-6.05,1.51-6.05,1.51
	c-3.53,0.4-8.37,2.11-8.37,2.11C67.98,68.99,58.61,77.87,58.61,77.87 M77.51,78.07c7.26-3.18,13.68-2.12,13.68-2.12
	c0.61-2.5,6.28-11.11,6.28-11.11c-10.13-2.95-16.55,7.64-16.55,7.64C80.23,73.15,77.51,78.07,77.51,78.07 M70.55,85.1
	c1.66,0.3,7.26,5.22,7.26,5.22c3.48,1.59,4.84,0.38,4.84,0.38c6.65-0.91,7.94,1.29,7.94,1.29c-2.49-4.76-0.38-13.31-0.38-13.31
	c-11.11-0.9-14.82,3.25-14.82,3.25C71.39,84.95,70.55,85.1,70.55,85.1 M76.75,41.4c0,0,1.21,4.46,0.23,8.62c0,0,0.23,5.06,1.13,6.8
	c0,0,2.27,5.44,3.02,6.2c0,0,3.63,0.45,6.28-0.53c0,0,10.58-1.36,11.57-0.23c0,0,1.81-1.13,1.59-1.97c0,0-3.25,0.91-7.49-3.02
	c0,0-1.28-3.02-8.77-7.33c0,0-2.72-2.12-3.71-3.4C80.61,46.54,77.58,42.46,76.75,41.4 M87.49,49.11c0,0,4.99,2.8,6.2,4.23
	c0,0,2.95-3.4,4.69-0.76c0,0,4.23-4.91,5.52-4.69c0,0-2.27-3.4-7.86-1.21c0,0-3.03,1.51-4.08,1.44
	C91.95,48.13,88.7,47.53,87.49,49.11 M101.93,58.03c0,0,1.06-0.6,1.29-2.19c0,0,0.15-1.06,0.3-1.87c0,0,1.56-5.09,1.66-4.69
	c0,0-3.38,1.36-5.24,4.69c0,0-1.16,1.26-3.93-0.7c0,0,0,3.07,1.71,3.73C97.72,57,99.08,58.06,101.93,58.03 M57.7,75.65
	c0,0,7.86-7.94,13.76-9.98c0,0-0.76-4.61,1.06-8.69c0,0,0.91-3.93-0.23-4.69c0,0-1.59,3.63-6.5,6.58
	C65.79,58.87,52.41,64.69,57.7,75.65 M53.32,71.79c0,0-0.08-9.22,8.01-14.06c0,0-0.23-2.12-4.31-5.44c0,0-1.44-2.42-1.66-3.48
	c0,0-0.45-0.91-0.83-0.76c0,0,0.76,5.22-1.66,8.69C52.86,56.75,49.01,62.57,53.32,71.79 M73.95,64.84c0,0,2.04-0.83,4.84-1.21
	c0,0-2.19-5.82-3.55-6.35C75.24,57.28,73.95,58.41,73.95,64.84 M63.98,56.22c0,0,3.32-0.98,4.01-2.42c0,0,3.1-3.86,4.01-4.31
	c0,0-2.42-4.16-6.58-7.48c0,0-0.76-0.45-1.74,0c0,0,1.06,4.08-0.45,7.94C63.22,49.94,62.31,53.95,63.98,56.22 M60.72,51.91
	c0,0,0.38-3.4,0.61-3.1c0,0,0.83-2.5,0.45-3.56C61.78,45.26,55.05,47.67,60.72,51.91 M95.5,28.25c0,0,0.08,2.95-0.76,4.08
	c0,0-0.38,0.15-0.45,0.98c0,0,4.69-0.45,6.35,0.61c0,0,5.52-2.8,8.32-2.87c0,0,0.6,0.15,0.83-0.91c0,0,2.65-1.96,3.55-3.7
	c0,0,0.91-1.59-3.86,0.3c0,0-0.83,0.83-6.58-0.38C102.91,26.36,98.22,25.75,95.5,28.25 M80.78,131.19c0,0-1.11-7.46-0.4-10.18
	c0,0-7.16-2.32-12.4,1.31c0,0-1.51,1.92-4.64,2.72c0,0,2.12,1.11,4.33,1.31c0,0,5.85,3.12,6.15,3.73
	C73.83,130.08,76.25,131.79,80.78,131.19 M65.06,120.8c0,0-0.5,0.71,2.12-1.21c0,0,3.63-3.73,13.31-1.71c0,0,0.1-0.91,0.5-1.31
	c0,0-6.35-1.61-7.26-3.22c0,0-2.62-3.83-12.9-4.94C60.83,108.41,64.66,117.38,65.06,120.8 M81.79,113.65c0,0,2.52-5.95,4.23-7.66
	c0,0-7.16-6.55-16.43-2.42c0,0-3.63,2.52-4.64,2.72c0,0,6.35,1.01,9.98,5.04C74.94,111.33,78.16,114.55,81.79,113.65 M87.03,103.97
	c0,0,5.75-5.95,7.46-6.95c0,0-2.62-1.21-3.83-2.32c0,0-6.45-5.44-15.52,2.02c0,0-2.01,2.42-3.73,2.82c0,0-0.81,0.91,0.7,0.91
	C72.12,100.44,80.18,97.42,87.03,103.97 M76.25,92.89c-1.71-1.11-3.83-3.23-3.83-3.23c-4.33-3.83-6.05-2.32-6.05-2.32
	c2.72,2.12,3.73,9.98,3.73,9.98c0.6,0.1,3.23-2.42,3.23-2.42C74.23,93.69,76.25,92.89,76.25,92.89 M64.25,101.05
	c0,0,4.43-2.12,2.32-8.16c0,0-2.12-6.25-6.55-9.58c0,0-3.63-2.72-4.44-4.84c0,0-2.72-3.02-2.92-0.7c0,0,0.5,3.73,0.3,4.74
	c0,0-0.4,4.23-1.61,5.85c0,0,1.71,3.33,5.54,4.74C56.89,93.09,63.25,98.33,64.25,101.05 M39.86,75.14c0,0,8.06,3.43,9.47,6.25
	c0,0,2.22-19.86-3.43-21.97C45.91,59.42,39.96,59.01,39.86,75.14 M45.6,88.25c1.11,2.82,1.31,2.52,1.31,2.52
	c2.32,2.22,2.22,7.36,2.22,7.36c-0.2,6.65,4.33,10.58,4.33,10.58c2.52,2.22,4.94,1.41,4.94,1.41c0.5-0.6-1.31-4.64-1.31-4.64
	c-0.6-0.91,5.75,0.61,5.75,0.61c1.41-3.73-6.96-9.78-6.96-9.78c-4.03-2.32-6.05-5.34-6.05-5.34C48.02,87.95,45.6,88.25,45.6,88.25
	 M32.75,76.63c-1.29,15.12,11.19,17.16,11.19,17.16c0.83-0.45,0-2.27,0-2.27c0.3-0.91-2.04-6.28-2.04-6.28
	c-0.08-3.03,5.97,1.21,5.97,1.21c1.59,0.83,0.98-0.08,0.98-0.08C45.53,77.23,32.75,76.63,32.75,76.63 M90.06,45.26
	c2.19,1.29,4.69-0.45,4.69-0.45c2.42-1.06,5.82-0.91,5.82-0.91c5.52,0.68,7.11-0.91,7.11-0.91c-4.01-5.29-7.11-6.5-7.11-6.5
	c-2.95-1.89-6.8-1.21-6.8-1.21c-0.6,0.68-0.91,4.16-0.91,4.16C92.85,42.46,90.06,45.26,90.06,45.26 M72.14,138.17
	c0,0-2.42-4.61-5.07-6.43c0,0-5.44-3.7-6.35-5.29c0,0-1.51-2.12-2.72-2.19c0,0,1.14,0.45,0.98,8.16c0,0,0.45,7.71,3.78,10.36
	c0,0,2.19-0.61,2.72,0c0,0,1.29,1.81,2.87-0.15C68.36,142.63,69.87,140.51,72.14,138.17 M59.59,144.14c0,0-3.02-3.86-3.86-11.19
	c0,0-5.52-4.39-18.14-2.5c0,0-3.4,0.38-4.99-0.08c0,0,5.6,1.06,10.73,8.16C43.34,138.55,47.49,145.5,59.59,144.14 M52.56,148.83
	c0,0,1.97-2.27,2.8-2.19c0,0-9.37,1.06-15.95-8.69c0,0-3.55-5.37-10.81-1.74c0,0,5.07,2.49,8.85,8.09c0,0,4.76,8.17,18.82,7.03
	c0,0-2.42-1.89-4.01-2.27 M29.96,147.62c6.05,4.01,5.97,5.44,5.97,5.44c1.89,2.8,3.7,4.16,3.7,4.16c9.9,7.41,27.14-0.83,27.14-0.83
	c-1.66-0.15-5.75-2.57-5.75-2.57c-0.68-0.53-1.89-0.76-1.89-0.76c-13.46,3.48-21.09-4.31-21.09-4.31
	C35.32,146.26,29.96,147.62,29.96,147.62 M26.63,146.11c0,0,3.63-2.04,6.96-1.36c0,0-2.27-5.44-9.98-7.33
	C23.61,137.41,24.06,143.84,26.63,146.11 M27.99,149.21c-1.28,10.81,5.75,10.96,5.75,10.96c3.25,0.91,4.69-0.83,4.69-0.83
	c-3.78-2.19-4.54-4.76-4.54-4.76C31.39,150.04,27.99,149.21,27.99,149.21 M75.24,157.67c0,0-4.01,0.23-5.44-0.23
	c0,0-5.22,4.76-15.12,5.37c0,0,7.11,3.4,11.57,0c0,0,0.75-0.68,2.87-0.6C69.12,162.21,75.62,160.24,75.24,157.67 M26.15,92.89
	c0,0-4.03,7.16,5.04,11.29c0,0-2.32-5.34-1.61-6.35c0,0-0.1-0.81,0-3.63C29.58,94.2,27.06,93.79,26.15,92.89 M30.38,88.75
	c0,0,2.12,1.11,2.02,8.16c0,0-0.1,5.95,2.42,8.57c0,0,5.95,1.71,8.57,3.83c0,0-0.7-4.94-1.71-6.25c0,0,2.02,1.11,3.12,1.31
	c0,0,1.31,0,3.02,0.91c0,0-0.7-7.96-9.17-10.18c0,0-3.33-1.11-5.65-4.74C33,90.36,31.59,88.65,30.38,88.75 M27.76,106.19
	c-0.6,1.71,0.91,2.42,0.91,2.42c1.71,1.11,3.33,8.87,3.33,8.87c2.02,5.54,7.66,9.27,7.66,9.27c5.75-0.81,15.83,1.61,15.83,1.61
	c0.81-0.71,0.2-2.92,0.2-2.92c-3.53-6.45-10.08-11.09-10.08-11.09C45.1,112.94,27.76,106.19,27.76,106.19 M46.01,110.52
	c0,0,8.57,5.55,8.87,8.87c0,0,5.34,1.91,6.05,3.63c0,0,2.42-7.66-2.22-10.38c0,0-5.24-2.72-9.48-3.73c0,0-2.42-0.5-4.43-2.72
	C44.8,106.19,46.81,110.12,46.01,110.52 M36.94,127.05c0,0-5.54-3.93-7.76-9.88c0,0-2.92-1.01-5.14-2.62c0,0-1.41-1.21-2.62-0.3
	c0,0,3.43,1.82,2.62,9.27C24.03,123.53,30.79,130.38,36.94,127.05"/>
<path fill="#003087" d="M31.8,165.76c0,0,16.13,14.52,37.5,0.4c0,0,17.74,13.81,37.55-0.25c0,0,17.24,13.61,37.8-0.91
	c0,0,17.84,14.06,37.5,0c0,0,17.39,13.15,36.14,0.45c0,0-4.99,10.28-6.5,12.1c0,0-13.76,6.5-29.63-3.48c0,0-17.24,13.46-37.5-0.45
	c0,0-17.24,13.91-37.65,0.6c0,0-17.09,13.46-37.35,0.3c0,0-10.89,10.89-31.6,3.33C38.05,177.86,31.75,167.42,31.8,165.76
	 M47.27,188.9c0.15,1.21,7.26,7.86,7.26,7.86c5.9,0.6,15.27-5.29,15.27-5.29c20.87,13,37.35-0.61,37.35-0.61
	c19.05,13,37.8-0.15,37.8-0.15c19.05,13.15,37.8,0.15,37.8,0.15c4.23,3.18,13.46,5.14,13.46,5.14c2.42-1.36,8.47-9.22,8.47-9.22
	c-9.22,3.18-22.08-4.69-22.08-4.69c-19.35,14.67-37.5,0-37.5,0c-20.41,14.82-38.1,0.61-38.1,0.61
	c-19.35,13.91-37.35,0.45-37.35,0.45C62.39,190.26,47.27,188.9,47.27,188.9 M62.54,203.86c0,0,61.39,49.29,127.01-2.12
	c0,0-4.23,0-6.65-2.57c0,0-17.09,12.1-37.8,0.3c0,0-17.54,12.85-37.8,0.45c0,0-15.88,11.94-37.04,0.6
	C70.25,200.54,67.23,203.71,62.54,203.86 M170.78,17.99c1.2-3.35,1.16-8.81-4.64-10.89c-5.8-2.08-9.3,2.11-10.5,5.46
	c-1.2,3.35-1.16,8.81,4.64,10.89S169.58,21.34,170.78,17.99 M168.62,17.21c-1.31,3.66-4.3,5.59-7.67,4.38
	c-3.37-1.21-4.45-4.6-3.14-8.26c1.31-3.66,4.3-5.59,7.67-4.38C168.85,10.17,169.93,13.56,168.62,17.21 M174.43,20.79l7.18,3.73
	l0.91-1.75l-7.18-3.73l2.33-4.49l8.16,4.23l0.91-1.75l-10.14-5.26L169,26.41l1.98,1.03L174.43,20.79z M25.3,49.59l8.53,6.02
	c2.93,2.07,2.37,4.49,1.19,6.16c-1.15,1.63-3.22,2.85-6.15,0.78l-8.49-5.99l-1.29,1.82l8.99,6.35c2.52,1.77,5.94,1.86,8.5-1.76
	c2.61-3.7,1.5-7.07-1.26-9.02l-8.75-6.18L25.3,49.59z M46.81,45.32l-0.03,0.03l-15.35-3.18l-1.82,1.92l11.97,11.35l1.48-1.57
	L33.4,44.7l0.03-0.03l15.45,3.09l1.72-1.82L38.62,34.58l-1.49,1.57L46.81,45.32z M44.21,29.81l-1.69,1.45l10.74,12.52l1.69-1.45
	L44.21,29.81z M60.99,34.63l-0.04,0.03l-11.94-8.81l-2.03,1.43L61.4,37.32l1.94-1.36L58.78,19l-2.05,1.44L60.99,34.63z M78.43,24.94
	l-8.78,4.68l-2.59-4.87l7.97-4.24l-0.93-1.74L66.12,23l-2.37-4.46l8.64-4.6l-0.93-1.74l-10.61,5.65L68.6,32.4l10.75-5.72
	L78.43,24.94z M80.37,18.66l5.06-1.88c2.5-0.93,3.31,0.46,3.78,1.73c0.22,0.58,1.15,2.9,1.81,3.74l2.56-0.95l-0.13-0.34
	c-0.78-0.13-1.01-0.41-1.35-1.26l-1.17-2.75c-0.89-2.12-1.91-2.18-2.93-2.22c0.77-0.95,1.62-2.22,0.78-4.51
	C87.56,6.94,84.69,7,82.15,7.95L75,10.61l5.75,15.46l2.09-0.78L80.37,18.66z M77.75,11.62l5.21-1.94c1.03-0.38,2.85-0.84,3.74,1.55
	c0.85,2.28-0.62,3.27-2.15,3.84l-4.85,1.8L77.75,11.62z M104.28,6.99c-0.48-1.75-1.79-5-7.42-3.75c-3.9,0.86-5,3.69-4.44,6.21
	c0.62,2.8,3.16,3.02,4.27,3.03l3.47,0.04c2.79,0.04,3.69,0.41,4.06,2.09c0.51,2.31-2.05,3.3-3.62,3.64
	c-2.07,0.46-4.63,0.13-5.27-2.79l-2.04,0.45c0.33,1.5,0.9,2.79,2.54,3.72c0.86,0.49,2.23,1.13,5.21,0.47
	c2.76-0.61,6.07-2.44,5.23-6.26c-0.56-2.56-2.41-3.47-4.61-3.5l-4.83-0.04c-0.99-0.02-2.05-0.25-2.36-1.62
	c-0.54-2.45,1.69-3.34,3.06-3.64c1.82-0.4,4.06-0.07,4.72,2.4L104.28,6.99z M107.43,1.79l2.04,16.38l2.21-0.28l-2.04-16.37
	L107.43,1.79z M111.26,1.16l0.09,1.97l5.58-0.26l0.68,14.51l2.23-0.1l-0.68-14.51l5.58-0.26l-0.09-1.97L111.26,1.16z M125.03,0.5
	l5.52,10.27l-0.46,6.63l2.22,0.16l0.46-6.63l6.9-9.4l-2.61-0.18l-5.28,7.58l-4.17-8.24L125.03,0.5z M5.43,130.76
	c-1.79,0.29-5.16,1.23-4.54,6.96c0.43,3.97,3.12,5.37,5.68,5.09c2.86-0.31,3.35-2.81,3.48-3.92l0.41-3.44
	c0.35-2.77,0.81-3.63,2.52-3.81c2.35-0.25,3.05,2.4,3.23,4c0.23,2.1-0.38,4.62-3.35,4.94l0.23,2.08c1.53-0.17,2.87-0.59,3.98-2.12
	c0.59-0.8,1.37-2.09,1.04-5.13c-0.3-2.81-1.77-6.31-5.65-5.88c-2.6,0.28-3.71,2.02-3.98,4.2l-0.57,4.8
	c-0.12,0.98-0.47,2.02-1.87,2.17c-2.49,0.27-3.13-2.04-3.28-3.44c-0.2-1.85,0.37-4.04,2.89-4.43L5.43,130.76z M2.48,129.07
	l0.08-5.58l14.52,0.21l0.03-2.23l-14.52-0.21l0.08-5.58l-1.98-0.03l-0.19,13.4L2.48,129.07z M13.66,106.24l4.97-0.99l0.32-2.41
	l-17.14,3.78l-0.33,2.51l15.55,8.3l0.3-2.28l-4.54-2.33L13.66,106.24z M10.94,111.86l-6.86-3.57l0.01-0.05l7.52-1.47L10.94,111.86z
	 M4.5,101.45l1.33-5.43l14.11,3.46l0.53-2.17L6.35,93.86l1.33-5.42l-1.92-0.47l-3.19,13.01L4.5,101.45z M24.52,79.17l-3.53,9.31
	l-5.16-1.96l3.2-8.45l-1.85-0.7l-3.2,8.45l-4.73-1.79l3.47-9.15l-1.85-0.7L6.62,85.41l15.43,5.85l4.32-11.39L24.52,79.17z
	 M201.01,44.59l-0.03-0.03l2.86-15.41l-1.96-1.78l-11.1,12.21l1.6,1.45l8.96-9.86l0.03,0.03l-2.75,15.51l1.85,1.68l11.1-12.21
	l-1.6-1.45L201.01,44.59z M211.88,58.83l-6.34-7.67l4.25-3.51l5.75,6.96l1.52-1.26l-5.75-6.96l3.9-3.22l6.24,7.55l1.52-1.26
	l-7.66-9.27L202.6,50.7l7.76,9.39L211.88,58.83z M227.27,61.24l0.02,0.04l-9.79,10.26l1.21,2.01l16.38-4.76l-1.26-2.11l-13.09,4.26
	l-0.03-0.04l9.61-10.07l-1.25-2.09l-13.41,3.73l-0.02-0.04l9.93-9.54l-1.24-2.07l-11.94,12.17l1.21,2.01L227.27,61.24z
	 M233.69,92.13l11.27,3.01l-0.78-2.5l-8.98-2.16l6.16-6.88l-0.77-2.48L233.02,90l-6.34,1.98l0.66,2.13L233.69,92.13z M239.77,112.93
	c3.51-0.61,8.23-3.35,7.17-9.42s-6.43-7.04-9.94-6.43c-3.51,0.61-8.23,3.35-7.17,9.42C230.89,112.57,236.27,113.54,239.77,112.93
	 M239.38,110.67c-3.83,0.67-6.98-0.97-7.6-4.5c-0.62-3.53,1.8-6.15,5.62-6.81c3.83-0.67,6.98,0.97,7.6,4.5
	C245.62,107.39,243.2,110,239.38,110.67 M238.77,117.57l0.15,5.4c0.08,2.66-1.5,2.98-2.86,3.02c-0.62,0.02-3.12,0.16-4.12,0.51
	l0.08,2.74l0.37-0.01c0.37-0.7,0.72-0.82,1.63-0.87l2.98-0.22c2.29-0.16,2.68-1.11,3.04-2.06c0.65,1.04,1.58,2.25,4.02,2.19
	c3.49-0.1,4.36-2.84,4.28-5.55l-0.22-7.63l-16.49,0.47l0.06,2.23L238.77,117.57z M246.29,117.36l0.16,5.56
	c0.03,1.1-0.12,2.97-2.67,3.04c-2.44,0.07-2.9-1.64-2.94-3.27l-0.15-5.17L246.29,117.36z M237.33,134.16l2.17,2.86l-8.87,4.79
	l-0.33,2.88l10.57-5.9l5.84,7.58l0.35-3.06l-7.04-8.85l7.95,0.9l0.25-2.21l-16.39-1.87l-0.25,2.22L237.33,134.16z M12.85,157.69
	c0.83,0,1.51-0.68,1.51-1.51c0-0.83-0.68-1.51-1.51-1.51c-0.83,0-1.51,0.68-1.51,1.51C11.34,157.01,12.01,157.69,12.85,157.69
	 M236.21,158.3c0.84,0,1.51-0.68,1.51-1.51c0-0.83-0.68-1.51-1.51-1.51c-0.83,0-1.51,0.68-1.51,1.51
	C234.7,157.63,235.38,158.3,236.21,158.3 M161.51,236.06l4.89-1.61c0.55,1.68,0.67,3.19-0.35,4.74c-0.86,1.3-2.09,1.8-2.88,2.06
	c-4.17,1.38-6.3-1.55-7.35-4.74c-1.36-4.1,0.22-7.12,3.03-8.04c1.73-0.57,4.2-0.76,5.78,1.75l2.05-0.68
	c-1.62-3.36-5.42-3.95-8.34-2.98c-5.11,1.68-6,6.75-4.74,10.57c0.55,1.66,1.5,4.32,4.65,5.8c1.07,0.52,2.7,1.07,5.38,0.18
	c2.14-0.7,3.79-2.32,4.37-4.15l1.17,1.86l1.37-0.45l-2.77-8.38l-6.87,2.27L161.51,236.06z M183.82,231.89l-8.96,4.33l-2.4-4.96
	l8.13-3.93l-0.86-1.78l-8.13,3.93l-2.2-4.55l8.81-4.27l-0.86-1.78l-10.82,5.24l7.19,14.85l10.97-5.31L183.82,231.89z M194.92,223.39
	l-0.04,0.03l-14.22-6.59l-2.21,1.45l9.08,13.78l1.81-1.19L182,219.73l0.04-0.03l14.34,6.52l2.09-1.38l-9.08-13.78l-1.8,1.19
	L194.92,223.39z M209.59,212.88l-7.52,6.51l-3.61-4.17l6.83-5.91l-1.29-1.5l-6.83,5.91l-3.31-3.82l7.4-6.41l-1.29-1.49l-9.09,7.87
	l10.8,12.47l9.21-7.97L209.59,212.88z M212.5,195.35c-1.41-1.15-4.36-3.02-8.22,1.27c-2.67,2.97-1.91,5.91,0,7.63
	c2.14,1.92,4.33,0.61,5.24-0.02l2.84-1.99c2.29-1.59,3.24-1.82,4.52-0.66c1.76,1.58,0.25,3.88-0.82,5.07
	c-1.41,1.57-3.69,2.8-5.91,0.8l-1.4,1.55c1.14,1.03,2.36,1.75,4.23,1.55c0.99-0.1,2.47-0.38,4.51-2.65c1.89-2.1,3.51-5.52,0.61-8.14
	c-1.95-1.75-3.98-1.42-5.79-0.16l-3.95,2.78c-0.82,0.56-1.82,0.99-2.86,0.05c-1.86-1.68-0.57-3.7,0.37-4.74
	c1.25-1.38,3.26-2.42,5.23-0.8L212.5,195.35z M229.18,188.52l-5.64,8.2l-4.54-3.13l5.12-7.44l-1.63-1.12l-5.12,7.44l-4.16-2.87
	l5.55-8.06l-1.63-1.12l-6.82,9.9l13.59,9.36l6.91-10.03L229.18,188.52z M231.81,170.03c-3.17-1.62-8.59-2.28-11.4,3.21
	c-2.8,5.49,0.9,9.5,4.08,11.12c3.17,1.62,8.59,2.27,11.4-3.21C238.69,175.66,234.98,171.65,231.81,170.03 M230.76,172.07
	c3.46,1.77,4.99,4.98,3.36,8.17c-1.63,3.19-5.13,3.83-8.59,2.06c-3.46-1.77-4.99-4.98-3.36-8.17
	C223.8,170.94,227.31,170.31,230.76,172.07 M121.49,244.52l1.42,4.87l2.43,0.11l-5.24-16.75l-2.53-0.11l-6.93,16.21l2.3,0.1
	l1.94-4.72L121.49,244.52z M115.65,242.28l2.96-7.14l0.05,0l2.11,7.36L115.65,242.28z M123.96,234.97l5.57-0.35l0.91,14.5l2.23-0.14
	l-0.91-14.5l5.57-0.35l-0.12-1.97L123.83,233L123.96,234.97z M25.76,181.48c2.33-1.51,3.71-4.67,1.82-8.47
	c-2.14-4.3-6.57-5.33-11.12-3.07c-5.68,2.82-6.23,7.2-4.56,10.55c0.55,1.11,3.05,5.52,9.04,3.57l-0.96-1.94
	c-3.78,1.03-5.51-0.91-6.15-2.21c-1.82-3.66,0.24-6.23,3.72-7.96c3.89-1.93,6.94-0.75,8.27,1.93c0.71,1.42,1.31,3.82-1.01,5.66
	L25.76,181.48z M32.93,197.8c2.92-2.04,6.05-6.52,2.53-11.57c-3.52-5.05-8.8-3.67-11.73-1.63c-2.92,2.04-6.05,6.51-2.53,11.57
	C24.72,201.22,30.01,199.83,32.93,197.8 M31.61,195.91c-3.18,2.22-6.74,2.07-8.79-0.88c-2.05-2.94-0.97-6.33,2.22-8.55
	c3.18-2.22,6.74-2.07,8.79,0.87C35.88,190.3,34.8,193.69,31.61,195.91 M42.6,196.08l-1.51-1.64l-12.14,11.17l7.18,7.8l1.45-1.34
	l-5.67-6.15L42.6,196.08z M50.75,204.4l-1.68-1.47L38.2,215.34l7.97,6.98l1.3-1.49l-6.29-5.51L50.75,204.4z M60.39,229.85
	l-8.23-5.59l3.1-4.57l7.47,5.07l1.11-1.64l-7.47-5.07l2.84-4.18l8.1,5.5l1.11-1.64l-9.95-6.75l-9.27,13.66l10.08,6.84L60.39,229.85z
	 M72.71,230.72l4.63,2.24c-0.77,1.59-1.74,2.76-3.54,3.16c-1.52,0.34-2.76-0.16-3.5-0.52c-3.95-1.91-3.45-5.5-1.98-8.52
	c1.88-3.89,5.11-4.96,7.77-3.67c1.63,0.79,3.55,2.38,2.94,5.28l1.95,0.94c1.18-3.54-1.15-6.6-3.92-7.94
	c-4.84-2.34-9.01,0.67-10.76,4.29c-0.76,1.57-1.93,4.15-0.69,7.4c0.41,1.12,1.19,2.65,3.74,3.88c2.03,0.98,4.33,0.97,6.02,0.05
	l-0.45,2.16l1.3,0.63l3.84-7.95L73.54,229L72.71,230.72z M93.43,243.72l-9.5-2.98l1.65-5.27l8.62,2.7l0.59-1.89l-8.62-2.7l1.51-4.82
	l9.34,2.93l0.59-1.89l-11.47-3.6l-4.94,15.75l11.62,3.64L93.43,243.72z"/>
</svg>
